<svg width="523" height="100" viewBox="0 0 523 100" fill="none" xmlns="http://www.w3.org/2000/svg">
<path d="M0 0H523V100H0V0Z" fill="white"/>
<path d="M52.4709 36.7859C53.9558 36.7357 54.9692 36.0975 54.9692 32.4227C54.9692 27.1563 50.3204 20.26 50.3204 20.26C50.3204 20.26 45.6715 27.1563 45.6715 32.4227C45.6715 36.1841 46.7333 36.7641 48.2756 36.7885C49.3595 34.8837 50.374 33.5461 50.374 33.5461C50.374 33.5461 51.3876 34.8824 52.4709 36.7859Z" fill="#6F3DFF"/>
<path fill-rule="evenodd" clip-rule="evenodd" d="M20 0C8.95431 0 0 8.9543 0 20V80C0 91.0457 8.9543 100 20 100H80C91.0457 100 100 91.0457 100 80V20C100 8.95431 91.0457 0 80 0H20ZM41.0129 59.5398C41.2423 60.3792 41.5372 61.1744 41.8918 61.9746H41.2502C39.9188 61.9746 38.5412 61.6451 37.9122 60.6285C36.7712 58.7842 36.3267 55.6689 36.4581 51.906C36.0251 40.743 41.941 21.288 50.0851 14.8438C58.1397 21.1824 64.0046 40.7339 63.5762 51.9179C63.7064 55.6946 63.2642 58.8164 62.1289 60.6489C61.5068 61.6531 60.1443 61.9746 58.8287 61.9746H58.1082C58.4626 61.1751 58.7572 60.3805 58.9866 59.5418C58.9339 59.5428 58.8813 59.5433 58.8287 59.5433H41.2502C41.1712 59.5433 41.092 59.5422 41.0129 59.5398ZM25.7812 62.0307C25.7812 54.4384 28.9283 47.7865 33.6446 44.0935C33.1621 46.77 32.8617 49.366 32.775 51.7487C32.6342 55.615 33.0251 59.4907 34.6625 62.1374C36.1102 64.4773 38.8374 65.054 40.6355 65.152C36.0336 66.0301 31.985 70.5963 29.2817 75C27.0889 71.4281 25.7812 66.9248 25.7812 62.0307ZM59.3813 65.1552C63.9763 66.0412 68.0183 70.6017 70.7184 75C72.9111 71.4281 74.2188 66.9248 74.2188 62.0307C74.2188 54.4658 71.0943 47.8344 66.4063 44.1335C66.8803 46.8054 67.1751 49.3963 67.2599 51.773C67.3978 55.6413 67.0105 59.5236 65.3776 62.1594C63.9179 64.5157 61.1561 65.0682 59.3813 65.1552ZM54.6755 67.6636C54.6755 69.9787 49.9999 85.3516 49.9999 85.3516C49.9999 85.3516 45.3244 69.9787 45.3244 67.6636C45.3244 65.3484 47.4177 61.7866 49.9999 61.7866C52.5822 61.7866 54.6755 65.3484 54.6755 67.6636Z" fill="#6F3DFF"/>
<path d="M149.387 48.9921C149.387 38.3716 154.396 31.7338 164.353 31.7338C174.249 31.7338 179.258 38.3716 179.258 48.9921V82H194.404V48.9921C194.404 29.4408 183.844 19.122 166.766 19.122C160.31 19.122 152.043 22.0185 149.387 29.7425V20.3289H134.241V82H149.387V48.9921Z" fill="#6F3DFF"/>
<path d="M254.178 20.3289V30.6476C250.316 22.8633 240.721 19.122 233.118 19.122C214.049 19.122 202.825 32.9407 202.825 51.1644C202.825 69.3882 214.049 83.2069 233.118 83.2069C240.721 83.2069 250.316 79.4656 254.178 71.6812V82H269.324V20.3289H254.178ZM236.256 70.5347C223.463 70.5347 218.334 61.2418 218.334 51.1644C218.334 41.0871 223.463 31.7942 236.256 31.7942C249.048 31.7942 254.178 41.0871 254.178 51.1644C254.178 61.2418 249.048 70.5347 236.256 70.5347Z" fill="#6F3DFF"/>
<path d="M280.099 82H295.245V46.0352C295.245 37.5268 298.866 31.7338 307.253 31.7338C315.641 31.7338 319.262 37.5268 319.262 46.0352V82H334.408V46.0352C334.408 37.5268 338.029 31.7338 346.416 31.7338C354.804 31.7338 358.425 37.5268 358.425 46.0352V82H373.571V46.0352C373.571 27.027 363.494 19.122 348.709 19.122C340.322 19.122 333.08 23.2254 329.762 27.6304C326.081 22.5012 319.262 19.122 309.546 19.122C303.452 19.122 297.297 22.3202 295.245 26.0012V20.3289H280.099V82Z" fill="#6F3DFF"/>
<path d="M433.345 20.3289V30.6476C429.483 22.8633 419.888 19.122 412.285 19.122C393.216 19.122 381.993 32.9407 381.993 51.1644C381.993 69.3882 393.216 83.2069 412.285 83.2069C419.888 83.2069 429.483 79.4656 433.345 71.6812V82H448.491V20.3289H433.345ZM415.423 70.5347C402.63 70.5347 397.501 61.2418 397.501 51.1644C397.501 41.0871 402.63 31.7942 415.423 31.7942C428.216 31.7942 433.345 41.0871 433.345 51.1644C433.345 61.2418 428.216 70.5347 415.423 70.5347Z" fill="#6F3DFF"/>
<path d="M489.438 70.5951C477.128 70.6554 473.205 61.4228 473.205 57.0781H522.023C523.23 32.4579 510.679 19.122 489.438 19.122C468.197 19.122 456.852 32.9407 456.852 51.1644C456.852 69.4485 468.197 83.2069 489.438 83.2069C500.903 83.2069 510.437 80.5517 517.799 73.2502L508.627 64.1383C504.463 67.6382 498.731 70.5347 489.438 70.5951ZM473.205 45.1904C473.205 40.725 477.007 31.7338 489.438 31.7338C501.869 31.7338 505.67 40.725 505.67 45.1904H473.205Z" fill="#6F3DFF"/>
</svg>
