<?xml version="1.0" standalone="no"?>
<!DOCTYPE svg PUBLIC "-//W3C//DTD SVG 20010904//EN"
 "http://www.w3.org/TR/2001/REC-SVG-20010904/DTD/svg10.dtd">
<svg version="1.0" xmlns="http://www.w3.org/2000/svg"
 width="512.000000pt" height="512.000000pt" viewBox="0 0 512.000000 512.000000"
 preserveAspectRatio="xMidYMid meet">
<metadata>
Created by potrace 1.11, written by Peter Selinger 2001-2013
</metadata>
<g transform="translate(0.000000,512.000000) scale(0.100000,-0.100000)"
fill="#000000" stroke="none">
<path d="M2472 4913 c-48 -48 -97 -101 -110 -118 -12 -16 -37 -50 -56 -75
-163 -219 -340 -589 -464 -970 -89 -273 -158 -567 -192 -820 -5 -41 -12 -93
-16 -115 -11 -70 -13 -637 -3 -700 24 -147 65 -266 109 -312 23 -25 70 -52
103 -59 53 -12 147 -16 147 -7 0 6 -11 41 -25 77 -14 37 -25 71 -25 76 0 6
223 10 620 10 l620 0 -4 -23 c-2 -12 -13 -46 -25 -75 -12 -29 -21 -58 -21 -64
0 -13 132 -4 173 11 91 35 137 112 173 290 22 114 27 179 27 386 0 224 -7 329
-34 524 -111 800 -458 1633 -825 1982 -33 30 -65 59 -72 63 -8 5 -43 -23 -100
-81z m180 -403 c66 -115 135 -259 178 -370 86 -221 97 -505 24 -609 -17 -24
-70 -51 -102 -51 -13 0 -40 33 -86 105 -37 58 -71 107 -76 110 -7 4 -56 -64
-124 -174 -27 -42 -29 -43 -68 -37 -57 9 -83 30 -109 89 -19 44 -22 70 -23
177 -1 156 5 196 55 345 63 187 246 543 269 519 4 -5 32 -52 62 -104z"/>
<path d="M1374 2928 c-147 -130 -269 -304 -357 -508 -32 -77 -79 -220 -92
-289 -31 -153 -37 -205 -40 -371 -3 -223 7 -301 69 -551 21 -82 101 -270 148
-348 l21 -33 41 64 c165 255 385 470 576 560 36 17 85 37 110 43 44 13 45 13
15 19 -164 33 -243 67 -306 130 -98 99 -163 273 -186 496 -13 122 -6 467 11
556 2 10 7 46 11 79 3 33 12 90 19 128 7 37 12 67 11 67 -1 0 -24 -19 -51 -42z"/>
<path d="M3704 2938 c9 -41 20 -122 31 -223 3 -33 8 -76 11 -95 3 -19 7 -120
8 -225 5 -302 -24 -477 -107 -641 -67 -132 -230 -232 -389 -238 -33 -1 -18
-12 40 -30 204 -63 448 -280 644 -574 l56 -84 27 46 c95 163 179 424 203 636
9 76 9 350 0 432 -32 290 -143 574 -316 808 -38 52 -192 210 -204 210 -5 0 -6
-10 -4 -22z"/>
<path d="M2502 1735 c-79 -24 -153 -94 -207 -196 -38 -73 -63 -165 -58 -219 7
-89 89 -411 203 -800 44 -151 83 -284 85 -295 15 -63 33 -107 38 -98 5 9 82
262 92 303 2 8 28 101 59 205 47 162 127 463 141 530 32 150 34 177 19 245
-50 220 -221 369 -372 325z"/>
</g>
</svg>
