<?xml version="1.0" standalone="no"?>
<!DOCTYPE svg PUBLIC "-//W3C//DTD SVG 20010904//EN"
 "http://www.w3.org/TR/2001/REC-SVG-20010904/DTD/svg10.dtd">
<svg version="1.0" xmlns="http://www.w3.org/2000/svg"
 width="512.000000pt" height="512.000000pt" viewBox="0 0 512.000000 512.000000"
 preserveAspectRatio="xMidYMid meet">
<metadata>
Created by potrace 1.11, written by Peter Selinger 2001-2013
</metadata>
<g transform="translate(0.000000,512.000000) scale(0.100000,-0.100000)"
fill="#000000" stroke="none">
<path d="M3950 4269 c-63 -9 -131 -20 -150 -23 -110 -22 -386 -108 -504 -157
-37 -16 -74 -29 -82 -29 -8 0 -14 -4 -14 -8 0 -5 -6 -9 -14 -9 -21 0 -391
-184 -505 -252 -56 -33 -104 -61 -106 -61 -2 0 -23 -13 -47 -28 -24 -16 -70
-46 -103 -68 -51 -32 -250 -174 -288 -204 -99 -78 -191 -162 -327 -299 -190
-191 -197 -199 -267 -305 -125 -188 -125 -285 0 -419 l35 -37 38 80 c20 44 38
80 40 80 6 0 874 -874 874 -880 0 -4 -34 -23 -76 -42 l-76 -35 41 -41 c62 -61
139 -96 201 -90 89 9 248 102 379 223 119 109 296 293 371 385 25 30 47 57 50
60 3 3 38 48 76 100 205 275 399 608 538 922 129 293 192 494 252 803 3 17 7
98 10 182 3 116 2 153 -8 160 -23 14 -220 10 -338 -8z m82 -275 c8 -8 -43
-197 -87 -324 -79 -228 -178 -398 -298 -512 -118 -113 -208 -144 -280 -96
l-35 22 13 46 c17 58 48 211 43 215 -3 3 -21 0 -128 -20 -14 -3 -48 -11 -76
-19 -29 -7 -56 -11 -62 -7 -16 10 -52 84 -52 107 0 69 117 217 243 310 124 91
361 192 602 258 99 27 109 29 117 20z"/>
<path d="M1740 3649 c-277 -41 -520 -145 -753 -320 -313 -235 -547 -565 -647
-912 l-19 -67 22 4 c12 3 45 10 72 16 75 16 92 19 154 25 31 3 72 8 91 11 43
6 273 6 318 0 18 -3 52 -8 75 -11 64 -10 225 -65 264 -92 36 -24 35 -19 -3 32
-93 126 -125 271 -89 409 61 235 343 555 753 855 39 29 72 54 72 56 0 6 -260
1 -310 -6z"/>
<path d="M1687 2035 c-77 -19 -172 -67 -211 -107 -71 -72 -215 -314 -521 -873
-84 -154 -117 -217 -114 -220 2 -1 49 22 104 52 55 30 132 71 170 92 262 143
587 331 702 406 122 80 164 129 203 234 54 148 42 275 -33 354 -66 71 -174 93
-300 62z"/>
<path d="M3568 1922 c-89 -118 -98 -130 -191 -236 -191 -219 -388 -375 -562
-447 -72 -30 -89 -33 -180 -33 -79 1 -111 5 -153 22 -58 24 -147 78 -176 108
-22 21 -21 18 15 -51 64 -122 91 -253 93 -450 1 -182 -6 -255 -40 -428 -9 -43
-13 -81 -10 -84 9 -9 192 55 293 102 83 39 222 119 263 152 8 6 42 32 75 57
58 43 189 166 250 236 260 295 413 665 419 1010 1 47 -1 102 -4 122 l-5 36
-87 -116z"/>
</g>
</svg>
