<svg width="523" height="100" viewBox="0 0 523 100" fill="none" xmlns="http://www.w3.org/2000/svg">
<path fill-rule="evenodd" clip-rule="evenodd" d="M20 0C8.95431 0 0 8.9543 0 20V80C0 91.0457 8.9543 100 20 100H80C91.0457 100 100 91.0457 100 80V20C100 8.95431 91.0457 0 80 0H20Z" fill="#6F3DFF"/>
<path d="M149.387 49.9921C149.387 39.3716 154.396 32.7338 164.353 32.7338C174.249 32.7338 179.258 39.3716 179.258 49.9921V83H194.404V49.9921C194.404 30.4408 183.844 20.122 166.766 20.122C160.31 20.122 152.043 23.0185 149.387 30.7425V21.3289H134.241V83H149.387V49.9921Z" fill="#6F3DFF"/>
<path d="M254.178 21.3289V31.6476C250.316 23.8633 240.721 20.122 233.118 20.122C214.049 20.122 202.825 33.9407 202.825 52.1644C202.825 70.3882 214.049 84.2069 233.118 84.2069C240.721 84.2069 250.316 80.4656 254.178 72.6812V83H269.324V21.3289H254.178ZM236.256 71.5347C223.463 71.5347 218.334 62.2418 218.334 52.1644C218.334 42.0871 223.463 32.7942 236.256 32.7942C249.048 32.7942 254.178 42.0871 254.178 52.1644C254.178 62.2418 249.048 71.5347 236.256 71.5347Z" fill="#6F3DFF"/>
<path d="M280.099 83H295.245V47.0352C295.245 38.5268 298.866 32.7338 307.253 32.7338C315.641 32.7338 319.262 38.5268 319.262 47.0352V83H334.408V47.0352C334.408 38.5268 338.029 32.7338 346.416 32.7338C354.804 32.7338 358.425 38.5268 358.425 47.0352V83H373.571V47.0352C373.571 28.027 363.494 20.122 348.709 20.122C340.322 20.122 333.08 24.2254 329.762 28.6304C326.081 23.5012 319.262 20.122 309.546 20.122C303.452 20.122 297.297 23.3202 295.245 27.0012V21.3289H280.099V83Z" fill="#6F3DFF"/>
<path d="M433.345 21.3289V31.6476C429.483 23.8633 419.888 20.122 412.285 20.122C393.216 20.122 381.993 33.9407 381.993 52.1644C381.993 70.3882 393.216 84.2069 412.285 84.2069C419.888 84.2069 429.483 80.4656 433.345 72.6812V83H448.491V21.3289H433.345ZM415.423 71.5347C402.63 71.5347 397.501 62.2418 397.501 52.1644C397.501 42.0871 402.63 32.7942 415.423 32.7942C428.216 32.7942 433.345 42.0871 433.345 52.1644C433.345 62.2418 428.216 71.5347 415.423 71.5347Z" fill="#6F3DFF"/>
<path d="M489.438 71.5951C477.128 71.6554 473.205 62.4228 473.205 58.0781H522.023C523.23 33.4579 510.679 20.122 489.438 20.122C468.197 20.122 456.852 33.9407 456.852 52.1644C456.852 70.4485 468.197 84.2069 489.438 84.2069C500.903 84.2069 510.437 81.5517 517.799 74.2502L508.627 65.1383C504.463 68.6382 498.731 71.5347 489.438 71.5951ZM473.205 46.1904C473.205 41.725 477.007 32.7338 489.438 32.7338C501.869 32.7338 505.67 41.725 505.67 46.1904H473.205Z" fill="#6F3DFF"/>
<g clip-path="url(#clip0)">
<path fill-rule="evenodd" clip-rule="evenodd" d="M35.9916 51.5036C36.3374 50.6075 36.7257 49.7616 37.1991 48.9322C37.2586 48.9955 37.3191 49.0578 37.3804 49.1191L51.0212 62.7599C51.062 62.8007 51.1033 62.8411 51.145 62.8812C50.3161 63.354 49.4709 63.742 48.5755 64.0875L49.1346 64.6466C50.1554 65.6674 51.4623 66.4752 52.7243 66.1787C55.0273 65.6377 57.793 63.5583 60.6227 60.5265C69.6338 52.1801 80.2543 32.4574 78.9228 21.2883C67.6023 19.9692 47.9146 30.4756 39.5882 39.4741C36.5664 42.292 34.4938 45.0544 33.9481 47.3709C33.6473 48.6479 34.4606 49.9726 35.4938 51.0057L35.9916 51.5036ZM69.0717 38.7195C66.2201 41.5711 64.9384 41.28 63.7472 40.1666C64.3836 37.8489 64.6341 36.0254 64.6341 36.0254C64.6341 36.0254 62.8089 36.2761 60.4897 36.9131C59.3118 35.6974 58.9379 34.4234 61.8567 31.5046C65.9434 27.4179 74.9024 25.6738 74.9024 25.6738C74.9024 25.6738 73.1584 34.6329 69.0717 38.7195ZM43.4675 31.2283C36.9419 30.4342 29.338 33.154 23.4465 39.0455C19.6487 42.8433 17.1689 47.3525 16.0987 51.8259C21.6137 50.5064 28.2987 50.1048 32.5512 52.9943C31.2319 51.523 29.5631 48.9592 30.2555 46.0201C31.0386 42.6957 33.7429 39.3848 36.8523 36.4938C38.7685 34.7122 41.0162 32.9308 43.4675 31.2283ZM47.0953 67.5435C49.9734 71.7967 49.5711 78.4721 48.2533 83.9804C52.7266 82.9102 57.2359 80.4304 61.0336 76.6326C66.904 70.7623 69.6253 63.1919 68.8593 56.6822C67.1537 59.1233 65.372 61.3626 63.5935 63.2727C60.6987 66.3815 57.3856 69.0936 54.0731 69.8719C51.1119 70.5676 48.54 68.8532 47.0953 67.5435ZM24.1432 75.9358C24.1432 75.9358 39.7006 67.6348 41.4972 65.8383C43.2937 64.0418 44.4332 59.6534 42.4294 57.6496C40.4256 55.6458 36.0372 56.7854 34.2407 58.5819C32.4442 60.3784 24.1432 75.9358 24.1432 75.9358Z" fill="white"/>
</g>
<defs>
<clipPath id="clip0">
<path d="M11 8H92V89H11V8Z" fill="white"/>
</clipPath>
</defs>
</svg>
